<?xml version="1.0" encoding="utf-8"?>
<!-- Generator: Adobe Illustrator 22.0.0, SVG Export Plug-In . SVG Version: 6.00 Build 0)  -->
<svg version="1.1" id="Calque_1" xmlns="http://www.w3.org/2000/svg" xmlns:xlink="http://www.w3.org/1999/xlink" x="0px" y="0px"
	 viewBox="0 0 571.1 237.8" style="enable-background:new 0 0 571.1 237.8;" xml:space="preserve">
<style type="text/css">
	.st0{fill:#F8C442;}
	.st1{fill:#F4A240;}
	.st2{fill:#975D50;}
	.st3{fill:#CCCCCC;}
	.st4{fill:none;}
	.st5{fill:#F8C442;stroke:#000000;stroke-width:8;stroke-linejoin:round;stroke-miterlimit:10;}
</style>
<polygon class="st0" points="579.9,200 538.3,223.9 496.7,200 496.7,152 538.3,128 579.9,152 "/>
<polygon class="st0" points="169.1,199.9 127.5,223.9 86,199.9 86,151.9 127.5,127.9 169.1,151.9 "/>
<polygon class="st0" points="252.2,199.9 210.6,223.9 169.1,199.9 169.1,151.9 210.6,127.9 252.2,151.9 "/>
<polygon class="st0" points="86.1,199.9 44.5,223.9 3,199.9 3,151.9 44.5,127.9 86.1,151.9 "/>
<polygon class="st0" points="210.6,271.9 169.1,295.8 127.5,271.9 127.5,223.9 169.1,199.9 210.6,223.9 "/>
<polygon class="st0" points="293.8,271.9 252.2,295.8 210.6,271.9 210.6,223.9 252.2,199.9 293.8,223.9 "/>
<polygon class="st0" points="293.8,128.9 252.2,152.8 210.6,128.9 210.6,80.9 252.2,56.9 293.8,80.9 "/>
<polygon class="st1" points="252.2,151.9 252.2,199.9 210.6,223.9 199.7,217.5 241.5,193.4 241.5,145.7 "/>
<polygon class="st0" points="127.5,271.9 86,295.8 44.4,271.9 44.4,223.9 86,199.9 127.5,223.9 "/>
<g>
	<polygon class="st1" points="293.8,79.9 293.8,127.9 252.2,151.9 241.5,145.7 283,121.4 283,73.7 	"/>
	<polygon class="st1" points="293.8,223.9 293.8,271.8 252.2,295.8 241.2,289.5 283,265.4 283,217.7 	"/>
	<polygon class="st1" points="210.6,223.9 210.6,271.8 169.1,295.8 158.1,289.5 199.7,265.2 199.7,217.5 	"/>
</g>
<polygon class="st0" points="210.6,127.9 169.1,151.8 127.5,127.9 127.5,79.9 169.1,55.9 210.6,79.9 "/>
<polygon class="st1" points="210.6,79.9 210.6,127.8 169.1,151.8 158.3,145.7 199.7,121.2 199.7,73.5 "/>
<polygon class="st0" points="127.5,127.9 85.9,151.8 44.4,127.9 44.4,79.9 85.9,55.9 127.5,79.9 "/>
<g>
	<polygon class="st1" points="127.5,79.9 127.5,127.8 85.9,151.8 75.4,145.7 116.5,121.2 116.5,73.5 	"/>
	<polygon class="st1" points="169.1,151.9 169.1,199.9 127.5,223.9 116.5,217.5 158.3,193.4 158.3,145.7 	"/>
	<polygon class="st1" points="127.5,223.9 127.5,271.8 86,295.8 75,289.5 116.5,265.2 116.5,217.5 	"/>
	<polygon class="st1" points="86.1,151.9 86.1,199.9 44.5,223.9 33.6,217.5 75.4,193.4 75.4,145.7 	"/>
</g>
<path class="st0" d="M13.6,21.1L13.6,21.1c9.5-10.3,25.6-10.9,35.9-1.5l12,11c10.3,9.5,10.9,25.6,1.5,35.9l0,0
	C53.5,76.8,37.4,77.4,27.1,68l-12-11C4.8,47.6,4.1,31.4,13.6,21.1z"/>
<g>
	<path class="st2" d="M41,74.5L69.1,44c-0.7-3.5-2.2-6.9-4.4-9.8L30.8,70.9C34,72.9,37.4,74.1,41,74.5z"/>
	
		<rect x="12.9" y="38.9" transform="matrix(0.6776 -0.7354 0.7354 0.6776 -19.9161 42.2844)" class="st2" width="50.8" height="9.9"/>
	<path class="st2" d="M35.5,13.2l-28,30.5c0.7,3.5,2.2,6.9,4.4,9.8l33.8-36.7C42.6,14.8,39.1,13.6,35.5,13.2z"/>
</g>
<g>
	<path class="st3" d="M58.8,56.8l6.9,4.1l6.9,4.1c0,0,42.2-23.4,33.2-46c-0.8-2-2-3.9-3.5-5.6c-1.3-1.5-3.4-3.1-5.1-4.2
		c-0.5-0.3-1-0.6-1.4-0.9c-1.8-1-4.2-2.1-6.1-2.5c-2.2-0.5-4.4-0.6-6.6-0.3C58.9,8.5,58.8,56.8,58.8,56.8z"/>
	<path class="st3" d="M52.9,63.2l4.6,6.6l4.6,6.6c0,0-19.9,44-43.1,36.8c-2-0.6-4-1.7-5.8-3c-1.6-1.1-3.4-3.1-4.6-4.8
		c-0.3-0.5-0.6-0.9-1-1.4c-1.2-1.7-2.4-4.1-3-5.9c-0.6-2.2-1-4.4-0.9-6.5C4.7,67.3,52.9,63.2,52.9,63.2z"/>
</g>
<circle class="st2" cx="65.8" cy="69.3" r="19.2"/>
<path d="M294.1,132.2c1.3-0.8,2.2-2.2,2.2-3.7V81.1c0-1.5-0.8-3-2.2-3.7l-41-23.7c-1.3-0.8-3-0.8-4.3,0l-38.9,22.4L171,53.7
	c-1.3-0.8-3-0.8-4.3,0l-38.9,22.4L92.1,55.5C106.7,42.8,112,30.2,107.5,19c-0.9-2.3-2.3-4.5-4.1-6.6c-1.7-2-4.3-3.9-6-4.9L96,6.7
	c-1.8-1.1-4.6-2.4-7.3-2.9C86,3.2,83.4,3.1,81,3.4C69.8,4.7,63.1,13.8,59.2,24.5L52.1,18c-5.6-5.2-13-7.9-20.7-7.6
	c-6.2,0.3-12,2.4-16.8,6.3l-4.9-4.5c-1.8-1.6-4.5-1.5-6.1,0.2c-1.6,1.8-1.5,4.5,0.2,6.1L8.7,23C1.9,33.1,2.2,46.5,9.4,56.2l0.1,0.1
	c1,1.4,2.2,2.7,3.6,4l7.1,6.6c-10.2,4.7-19,12-19.5,23.4c-0.1,2.4,0.2,5,1,7.7c0.7,2.6,2.3,5.3,3.5,7c0.3,0.4,0.6,0.9,0.9,1.3
	c1.2,1.7,3.3,4.1,5.4,5.6c2.2,1.6,4.6,2.8,6.9,3.5c2.1,0.7,4.3,1,6.4,1c5.5,0,11.1-2.2,16.6-6.4v16L2.7,148.3
	c-1.3,0.8-2.2,2.2-2.2,3.7v47.4c0,1.5,0.8,3,2.2,3.7l38.7,22.4v45c0,1.5,0.8,3,2.2,3.7l41,23.7c0.7,0.4,1.4,0.6,2.2,0.6
	c0.7,0,1.5-0.2,2.2-0.6l38.9-22.4l38.9,22.4c0.7,0.4,1.4,0.6,2.2,0.6c0.7,0,1.5-0.2,2.2-0.6l38.9-22.4l38.9,22.4
	c0.7,0.4,1.4,0.6,2.2,0.6c0.7,0,1.5-0.2,2.2-0.6l41-23.7c1.3-0.8,2.2-2.2,2.2-3.7v-47.4c0-1.5-0.8-3-2.2-3.7L255.5,197v-42.4
	L294.1,132.2z M132.2,83.6l36.7-21.2l36.7,21.2V126l-36.7,21.2L132.2,126V83.6L132.2,83.6z M50.1,101.7c2.7-3.1,5.3-6.8,7.9-10.9
	c2.2,0.7,4.6,1.1,6.9,1.1c2.8,0,5.5-0.5,8.1-1.5l1.3,4.8c0.5,1.9,2.3,3.2,4.2,3.2c0.4,0,0.8,0,1.1-0.2c2.3-0.6,3.7-3,3.1-5.3l-2-7.4
	c0.3-0.3,0.7-0.7,1-1c0.3-0.4,0.6-0.7,0.9-1.1l7.5,1.4c0.3,0,0.5,0.1,0.8,0.1c2,0,3.9-1.5,4.3-3.5c0.4-2.4-1.1-4.6-3.5-5l-4.8-0.9
	c0.7-2.3,1-4.8,0.9-7.3c-0.1-2-0.4-3.9-1-5.7l0,0l36.7,21.2v42.4l-36.6,21.1L50.1,126L50.1,101.7L50.1,101.7L50.1,101.7z M82.1,11.9
	c1.5-0.2,3.1-0.1,4.9,0.3c1.2,0.3,3.2,1.1,4.6,1.9l1.4,0.8c1.4,0.8,3.1,2.2,3.9,3.1c1.2,1.4,2.1,2.8,2.6,4.2
	c4.5,11.1-8.4,23.6-18.1,31c-0.3-0.3-0.6-0.6-0.9-0.9c-4.5-4.1-10.3-6.3-16.4-6c-0.3,0-0.5,0-0.8,0.1C64.6,34.8,68.9,13.5,82.1,11.9
	z M64.4,54.9c0.2,0,0.4,0,0.6,0c3.6,0,7,1.3,9.6,3.8c2.8,2.6,4.4,6.1,4.6,9.8c0.2,3.8-1.2,7.4-3.7,10.2c-5.3,5.7-14.3,6.1-20,0.8
	c-2.8-2.6-4.4-6.1-4.6-9.8c-0.1-1.6,0.1-3.1,0.6-4.6V65c0.6-2,1.7-3.9,3.1-5.5C57.1,56.6,60.6,55,64.4,54.9z M18.9,54
	c-0.1-0.1-0.1-0.1-0.2-0.2l12.9-14c1.6-1.8,1.5-4.5-0.2-6.1c-1.8-1.6-4.5-1.5-6.1,0.2L13.8,46.4c-2.7-6.9-1.4-15.1,4-20.9l0,0l0,0
	c3.6-3.9,8.6-6.2,14-6.4c2.2-0.1,4.4,0.2,6.5,0.8l-1.8,2c-1.6,1.8-1.5,4.5,0.2,6.1c0.8,0.8,1.9,1.1,2.9,1.1c1.2,0,2.3-0.5,3.2-1.4
	l3.3-3.5c0.1,0.1,0.1,0.1,0.2,0.2l6.1,5.6L40.6,42.8c-1.6,1.8-1.5,4.5,0.2,6.1c0.8,0.8,1.9,1.1,2.9,1.1c1.2,0,2.3-0.5,3.2-1.4
	l8.5-9.2c-0.6,3.3-0.9,6.5-1.2,9.4c-2.2,1.2-4.3,2.8-6.1,4.7s-3.2,4.1-4.2,6.4c-2.7,0.5-5.9,1.1-9.3,2l2.3-2.5
	c1.6-1.8,1.5-4.5-0.2-6.1c-1.8-1.6-4.5-1.5-6.1,0.2l-5.6,6L18.9,54z M21,107.2c-1.4-0.4-2.9-1.2-4.4-2.3c-1-0.7-2.5-2.3-3.4-3.6
	c-0.3-0.4-0.6-0.9-0.9-1.3c-1-1.4-1.9-3.2-2.3-4.4c-0.5-1.8-0.7-3.4-0.7-4.9c0.5-13.1,20.9-19.2,32.8-21.5c0,0.3,0,0.5,0,0.8
	c0.2,6.1,2.8,11.7,7.3,15.9c0.3,0.3,0.6,0.6,1,0.8C44.1,96.5,32.6,110.8,21,107.2z M9.3,197.1v-42.4l36.6-21.1l36.6,21.1v42.4
	l-36.6,21.1L9.3,197.1z M123.5,268.1l-36.7,21.2l-36.7-21.2v-42.3l36.8-21.2l36.6,21.1V268.1L123.5,268.1z M91.3,197.1v-42.5
	l36.6-21.1l36.7,21.2v42.4l-36.7,21.2L91.3,197.1z M205.6,268.1l-36.7,21.2l-36.7-21.2v-42.4l36.7-21.2l36.7,21.2V268.1z
	 M173.2,197.1v-42.4l36.7-21.2l36.7,21.2v42.4l-36.7,21.2L173.2,197.1z M287.6,225.7v42.4l-36.7,21.2l-36.7-21.2v-42.4l36.7-21.2
	L287.6,225.7z M250.9,147.2L214.2,126V83.6l36.7-21.2l36.7,21.2V126L250.9,147.2z"/>
<circle cx="60" cy="104.6" r="5.1"/>
<circle cx="63.3" cy="259.8" r="5.1"/>
<circle cx="78.3" cy="273.3" r="5.1"/>
<circle cx="189.5" cy="159.7" r="5.1"/>
<circle cx="105.1" cy="159.7" r="5.1"/>
<circle cx="228.6" cy="258.2" r="5.1"/>
<polygon class="st0" points="415.3,199.5 373.7,223.5 332.2,199.5 332.2,151.5 373.7,127.5 415.3,151.5 "/>
<polygon class="st0" points="498.4,199.5 456.8,223.5 415.3,199.5 415.3,151.5 456.8,127.5 498.4,151.5 "/>
<polygon class="st0" points="332.3,199.5 290.7,223.5 249.2,199.5 249.2,151.5 290.7,127.5 332.3,151.5 "/>
<polygon class="st0" points="456.8,271.5 415.3,295.4 373.7,271.5 373.7,223.5 415.3,199.5 456.8,223.5 "/>
<polygon class="st0" points="540,271.5 498.4,295.4 456.8,271.5 456.8,223.5 498.4,199.5 540,223.5 "/>
<polygon class="st0" points="540,128.5 498.4,152.4 456.8,128.5 456.8,80.5 498.4,56.5 540,80.5 "/>
<polygon class="st1" points="498.4,151.5 498.4,199.5 456.8,223.5 445.9,217.1 487.7,193 487.7,145.3 "/>
<polygon class="st0" points="373.7,271.5 332.2,295.4 290.6,271.5 290.6,223.5 332.2,199.5 373.7,223.5 "/>
<g>
	<polygon class="st1" points="540,79.5 540,127.5 498.4,151.5 487.7,145.3 529.2,121 529.2,73.3 	"/>
	<polygon class="st1" points="540,223.5 540,271.4 498.4,295.4 487.4,289.1 529.2,265 529.2,217.3 	"/>
	<polygon class="st1" points="456.8,223.5 456.8,271.4 415.3,295.4 404.3,289.1 445.9,264.8 445.9,217.1 	"/>
</g>
<polygon class="st0" points="456.8,127.5 415.3,151.4 373.7,127.5 373.7,79.5 415.3,55.5 456.8,79.5 "/>
<polygon class="st1" points="456.8,79.5 456.8,127.4 415.3,151.4 404.5,145.3 445.9,120.8 445.9,73.1 "/>
<g>
	<polygon class="st1" points="415.3,151.5 415.3,199.5 373.7,223.5 362.7,217.1 404.5,193 404.5,145.3 	"/>
	<polygon class="st1" points="373.7,223.5 373.7,271.4 332.2,295.4 321.2,289.1 362.7,264.8 362.7,217.1 	"/>
	<polygon class="st1" points="332.3,151.5 332.3,199.5 290.7,223.5 279.8,217.1 321.6,193 321.6,145.3 	"/>
</g>
<circle cx="309.5" cy="259.4" r="5.1"/>
<circle cx="324.5" cy="272.9" r="5.1"/>
<circle cx="435.7" cy="159.3" r="5.1"/>
<circle cx="351.3" cy="159.3" r="5.1"/>
<circle cx="474.8" cy="257.8" r="5.1"/>
<g>
	<path class="st4" d="M297.7,64.6L297.7,64.6c-0.5,1.6-0.7,3.1-0.6,4.7c0.2,3.7,1.8,7.2,4.6,9.8c5.7,5.3,14.7,4.9,20-0.8
		c2.5-2.8,3.9-6.4,3.7-10.2c-0.2-3.7-1.8-7.2-4.6-9.8c-2.6-2.5-6-3.8-9.6-3.8c-0.2,0-0.4,0-0.6,0c-3.8,0.1-7.3,1.7-9.8,4.6
		C299.4,60.7,298.3,62.6,297.7,64.6z"/>
	<path class="st4" d="M326.7,51.9c0.3,0.3,0.6,0.6,0.9,0.9c9.7-7.4,22.6-19.9,18.1-31c-0.5-1.4-1.4-2.8-2.6-4.2
		c-0.8-0.9-2.5-2.3-3.9-3.1l-1.4-0.8c-1.4-0.8-3.4-1.6-4.6-1.9c-1.8-0.4-3.4-0.5-4.9-0.3c-13.2,1.6-17.5,22.9-18.8,34.5
		c0.3-0.1,0.5-0.1,0.8-0.1C316.4,45.6,322.2,47.8,326.7,51.9z"/>
	<polygon class="st4" points="533.8,125.6 533.8,83.2 497.1,62 460.4,83.2 460.4,125.6 497.1,146.8 	"/>
	<path class="st4" d="M295.6,85.5c-4.5-4.2-7.1-9.8-7.3-15.9c0-0.3,0-0.5,0-0.8c-11.2,2.2-30,7.7-32.5,19.3
		c-0.2,0.7-0.3,1.4-0.3,2.2c0,1.5,0.2,3.1,0.7,4.9c0.4,1.2,1.3,3,2.3,4.4c0.3,0.4,0.6,0.9,0.9,1.3c0.9,1.3,2.4,2.9,3.4,3.6
		c1.5,1.1,3,1.9,4.4,2.3c11.6,3.6,23.1-10.7,29.4-20.5C296.2,86.1,295.9,85.8,295.6,85.5z"/>
	<path class="st4" d="M333,62.1c0.6,1.8,0.9,3.7,1,5.7c0.1,2.5-0.2,5-0.9,7.3l4.8,0.9c2.4,0.4,3.9,2.6,3.5,5c-0.4,2-2.3,3.5-4.3,3.5
		c-0.3,0-0.5-0.1-0.8-0.1l-7.5-1.4c-0.3,0.4-0.6,0.7-0.9,1.1c-0.3,0.3-0.7,0.7-1,1l2,7.4c0.6,2.3-0.8,4.7-3.1,5.3
		c-0.3,0.2-0.7,0.2-1.1,0.2c-1.9,0-3.7-1.3-4.2-3.2l-1.3-4.8c-2.6,1-5.3,1.5-8.1,1.5c-2.3,0-4.7-0.4-6.9-1.1
		c-2.6,4.1-5.2,7.8-7.9,10.9v14.3l4.7-0.3l-4.7,0.3v9.9l9.8-0.2l-9.8,0.2v0.1l36.8,21.2l36.6-21.1V83.3l-2.3,4.2l2.3-4.2v0L333,62.1
		z"/>
	<path class="st4" d="M276.8,53.1c1.6-1.7,4.3-1.8,6.1-0.2c1.7,1.6,1.8,4.3,0.2,6.1l-2.3,2.5c3.4-0.9,6.6-1.5,9.3-2
		c1-2.3,2.4-4.5,4.2-6.4c1.8-1.9,3.9-3.5,6.1-4.7c0.3-2.9,0.6-6.1,1.2-9.4l-8.5,9.2c-0.9,0.9-2,1.4-3.2,1.4c-1,0-2.1-0.3-2.9-1.1
		c-1.7-1.6-1.8-4.3-0.2-6.1l11.8-12.8l-6.1-5.6c-0.1-0.1-0.1-0.1-0.2-0.2l-3.3,3.5c-0.9,0.9-2,1.4-3.2,1.4c-1,0-2.1-0.3-2.9-1.1
		c-1.7-1.6-1.8-4.3-0.2-6.1l1.8-2c-2.1-0.6-4.3-0.9-6.5-0.8c-5.4,0.2-10.4,2.5-14,6.4c-5.4,5.8-6.7,14-4,20.9l11.5-12.5
		c1.6-1.7,4.3-1.8,6.1-0.2c1.7,1.6,1.8,4.3,0.2,6.1l-12.9,14c0.1,0.1,0.1,0.1,0.2,0.2l6.1,5.5L276.8,53.1z"/>
	<polygon class="st4" points="451.8,125.6 451.8,83.2 415.1,62 378.4,83.2 378.4,83.2 378.4,125.6 415.1,146.8 	"/>
	<polygon class="st4" points="369.7,225.3 333.1,204.2 296.3,225.4 296.3,267.7 333,288.9 369.7,267.7 369.7,267.7 	"/>
	<polygon class="st4" points="460.4,225.3 460.4,267.7 497.1,288.9 533.8,267.7 533.8,225.3 497.1,204.1 	"/>
	<polygon class="st4" points="328.7,154.3 292.1,133.2 255.5,154.3 255.5,196.7 292.1,217.8 328.7,196.7 	"/>
	<polygon class="st4" points="492.8,154.3 456.1,133.1 419.4,154.3 419.4,196.7 456.1,217.9 492.8,196.7 	"/>
	<polygon class="st4" points="378.4,225.3 378.4,267.7 415.1,288.9 451.8,267.7 451.8,225.3 415.1,204.1 	"/>
	<polygon class="st4" points="410.8,154.3 374.1,133.1 337.5,154.2 337.5,196.7 374.1,217.9 410.8,196.7 	"/>
	<path d="M540.5,219.1l-38.9-22.4v-42.4l38.7-22.5c1.3-0.8,2.2-2.2,2.2-3.7V80.7c0-1.5-0.8-3-2.2-3.7l-41-23.7c-1.3-0.8-3-0.8-4.3,0
		l-38.9,22.4l-38.9-22.4c-1.3-0.8-3-0.8-4.3,0L374,75.7l-0.1-0.1l-4.2,7.7v42.4l-36.6,21.1l-36.8-21.2v-0.1l-8.8,0.2L248.8,148
		c-1.3,0.8-2.2,2.2-2.2,3.7v47.4c0,1.5,0.8,3,2.2,3.7l38.7,22.4v45c0,1.5,0.8,3,2.2,3.7l41,23.7c0.7,0.4,1.4,0.6,2.2,0.6
		c0.7,0,1.5-0.2,2.2-0.6l38.9-22.4l38.9,22.4c0.7,0.4,1.4,0.6,2.2,0.6c0.7,0,1.5-0.2,2.2-0.6l38.9-22.4l38.9,22.4
		c0.7,0.4,1.4,0.6,2.2,0.6c0.7,0,1.5-0.2,2.2-0.6l41-23.7c1.3-0.8,2.2-2.2,2.2-3.7v-47.4C542.7,221.3,541.9,219.8,540.5,219.1z
		 M460.4,83.2L497.1,62l36.7,21.2v42.4l-36.7,21.2l-36.7-21.2V83.2z M378.4,83.2L378.4,83.2L415.1,62l36.7,21.2v42.4l-36.7,21.2
		l-36.7-21.2V83.2z M255.5,196.7v-42.4l36.6-21.1l36.6,21.1v42.4l-36.6,21.1L255.5,196.7z M333,288.9l-36.7-21.2v-42.3l36.8-21.2
		l36.6,21.1v42.4h0L333,288.9z M337.5,196.7v-42.5l36.6-21.1l36.7,21.2v42.4l-36.7,21.2L337.5,196.7z M451.8,267.7l-36.7,21.2
		l-36.7-21.2v-42.4l36.7-21.2l36.7,21.2V267.7z M456.1,217.9l-36.7-21.2v-42.4l36.7-21.2l36.7,21.2v42.4L456.1,217.9z M533.8,267.7
		l-36.7,21.2l-36.7-21.2v-42.4l36.7-21.2l36.7,21.2V267.7z"/>
</g>
<polygon class="st0" points="661.5,199.3 619.9,223.3 578.4,199.3 578.4,151.3 619.9,127.3 661.5,151.3 "/>
<polygon class="st0" points="744.6,199.3 703,223.3 661.5,199.3 661.5,151.3 703,127.3 744.6,151.3 "/>
<polygon class="st0" points="703,271.3 661.5,295.2 619.9,271.3 619.9,223.3 661.5,199.3 703,223.3 "/>
<polygon class="st0" points="786.2,271.3 744.6,295.2 703,271.3 703,223.3 744.6,199.3 786.2,223.3 "/>
<polygon class="st0" points="786.2,128.3 744.6,152.2 703,128.3 703,80.3 744.6,56.3 786.2,80.3 "/>
<polygon class="st1" points="744.6,151.3 744.6,199.3 703,223.3 692.1,216.9 733.9,192.8 733.9,145.1 "/>
<polygon class="st0" points="619.9,271.3 578.4,295.2 536.8,271.3 536.8,223.3 578.4,199.3 619.9,223.3 "/>
<g>
	<polygon class="st1" points="786.2,79.3 786.2,127.3 744.6,151.3 733.9,145.1 775.4,120.8 775.4,73.1 	"/>
	<polygon class="st1" points="786.2,223.3 786.2,271.2 744.6,295.2 733.6,288.9 775.4,264.8 775.4,217.1 	"/>
	<polygon class="st1" points="703,223.3 703,271.2 661.5,295.2 650.5,288.9 692.1,264.6 692.1,216.9 	"/>
</g>
<polygon class="st0" points="703,127.3 661.5,151.2 619.9,127.3 619.9,79.3 661.5,55.3 703,79.3 "/>
<polygon class="st1" points="703,79.3 703,127.2 661.5,151.2 650.7,145.1 692.1,120.6 692.1,72.9 "/>
<g>
	<polygon class="st1" points="661.5,151.3 661.5,199.3 619.9,223.3 608.9,216.9 650.7,192.8 650.7,145.1 	"/>
	<polygon class="st1" points="619.9,223.3 619.9,271.2 578.4,295.2 567.4,288.9 608.9,264.6 608.9,216.9 	"/>
	<polygon class="st1" points="578.5,151.3 578.5,199.3 536.9,223.3 526,216.9 567.8,192.8 567.8,145.1 	"/>
</g>
<circle cx="681.9" cy="159.1" r="5.1"/>
<circle cx="597.5" cy="159.1" r="5.1"/>
<circle cx="721" cy="257.6" r="5.1"/>
<g>
	<path class="st4" d="M543.9,64.4L543.9,64.4c-0.5,1.6-0.7,3.1-0.6,4.7c0.2,3.7,1.8,7.2,4.6,9.8c5.7,5.3,14.7,4.9,20-0.8
		c2.5-2.8,3.9-6.4,3.7-10.2c-0.2-3.7-1.8-7.2-4.6-9.8c-2.6-2.5-6-3.8-9.6-3.8c-0.2,0-0.4,0-0.6,0c-3.8,0.1-7.3,1.7-9.8,4.6
		C545.6,60.5,544.5,62.4,543.9,64.4z"/>
	<path class="st4" d="M572.9,51.7c0.3,0.3,0.6,0.6,0.9,0.9c9.7-7.4,22.6-19.9,18.1-31c-0.5-1.4-1.4-2.8-2.6-4.2
		c-0.8-0.9-2.5-2.3-3.9-3.1l-1.4-0.8c-1.4-0.8-3.4-1.6-4.6-1.9c-1.8-0.4-3.4-0.5-4.9-0.3c-13.2,1.6-17.5,22.9-18.8,34.5
		c0.3-0.1,0.5-0.1,0.8-0.1C562.6,45.4,568.4,47.6,572.9,51.7z"/>
	<polygon class="st4" points="780,125.4 780,83 743.3,61.8 706.6,83 706.6,125.4 743.3,146.6 	"/>
	<path class="st4" d="M541.8,85.3c-4.5-4.2-7.1-9.8-7.3-15.9c0-0.3,0-0.5,0-0.8c-11.2,2.2-30,7.7-32.5,19.3
		c-0.2,0.7-0.3,1.4-0.3,2.2c0,1.5,0.2,3.1,0.7,4.9c0.4,1.2,1.3,3,2.3,4.4c0.3,0.4,0.6,0.9,0.9,1.3c0.9,1.3,2.4,2.9,3.4,3.6
		c1.5,1.1,3,1.9,4.4,2.3c11.6,3.6,23.1-10.7,29.4-20.5C542.4,85.9,542.1,85.6,541.8,85.3z"/>
	<path class="st4" d="M579.2,61.9c0.6,1.8,0.9,3.7,1,5.7c0.1,2.5-0.2,5-0.9,7.3l4.8,0.9c2.4,0.4,3.9,2.6,3.5,5
		c-0.4,2-2.3,3.5-4.3,3.5c-0.3,0-0.5-0.1-0.8-0.1l-7.5-1.4c-0.3,0.4-0.6,0.7-0.9,1.1c-0.3,0.3-0.7,0.7-1,1l2,7.4
		c0.6,2.3-0.8,4.7-3.1,5.3c-0.3,0.2-0.7,0.2-1.1,0.2c-1.9,0-3.7-1.3-4.2-3.2l-1.3-4.8c-2.6,1-5.3,1.5-8.1,1.5
		c-2.3,0-4.7-0.4-6.9-1.1c-2.6,4.1-5.2,7.8-7.9,10.9v14.3l4.7-0.3l-4.7,0.3v9.9l9.8-0.2l-9.8,0.2v0.1l36.8,21.2l36.6-21.1V83.2
		l-2.3,4.2l2.3-4.2v0L579.2,61.9z"/>
	<path class="st4" d="M523,52.9c1.6-1.7,4.3-1.8,6.1-0.2c1.7,1.6,1.8,4.3,0.2,6.1l-2.3,2.5c3.4-0.9,6.6-1.5,9.3-2
		c1-2.3,2.4-4.5,4.2-6.4c1.8-1.9,3.9-3.5,6.1-4.7c0.3-2.9,0.6-6.1,1.2-9.4l-8.5,9.2c-0.9,0.9-2,1.4-3.2,1.4c-1,0-2.1-0.3-2.9-1.1
		c-1.7-1.6-1.8-4.3-0.2-6.1l11.8-12.8l-6.1-5.6c-0.1-0.1-0.1-0.1-0.2-0.2l-3.3,3.5c-0.9,0.9-2,1.4-3.2,1.4c-1,0-2.1-0.3-2.9-1.1
		c-1.7-1.6-1.8-4.3-0.2-6.1l1.8-2c-2.1-0.6-4.3-0.9-6.5-0.8c-5.4,0.2-10.4,2.5-14,6.4c-5.4,5.8-6.7,14-4,20.9l11.5-12.5
		c1.6-1.7,4.3-1.8,6.1-0.2c1.7,1.6,1.8,4.3,0.2,6.1l-12.9,14c0.1,0.1,0.1,0.1,0.2,0.2l6.1,5.5L523,52.9z"/>
	<polygon class="st4" points="698,125.4 698,83 661.3,61.8 624.6,83 624.6,83 624.6,125.4 661.3,146.6 	"/>
	<polygon class="st4" points="615.9,225.1 579.3,204 542.5,225.2 542.5,267.5 579.2,288.7 615.9,267.5 615.9,267.5 	"/>
	<polygon class="st4" points="706.6,225.1 706.6,267.5 743.3,288.7 780,267.5 780,225.1 743.3,203.9 	"/>
	<polygon class="st4" points="574.9,154.1 538.3,133 501.7,154.1 501.7,196.5 538.3,217.6 574.9,196.5 	"/>
	<polygon class="st4" points="739,154.1 702.3,132.9 665.6,154.1 665.6,196.5 702.3,217.7 739,196.5 	"/>
	<polygon class="st4" points="624.6,225.1 624.6,267.5 661.3,288.7 698,267.5 698,225.1 661.3,203.9 	"/>
	<polygon class="st4" points="657,154.1 620.3,132.9 583.7,154 583.7,196.5 620.3,217.7 657,196.5 	"/>
	<path d="M786.7,218.9l-38.9-22.4v-42.4l38.7-22.5c1.3-0.8,2.2-2.2,2.2-3.7V80.5c0-1.5-0.8-3-2.2-3.7l-41-23.7c-1.3-0.8-3-0.8-4.3,0
		l-38.9,22.4l-38.9-22.4c-1.3-0.8-3-0.8-4.3,0l-38.9,22.4l-0.1-0.1l-4.2,7.7v42.4l-36.6,21.1l-36.8-21.2v-0.1l-8.8,0.2L495,147.8
		c-1.3,0.8-2.2,2.2-2.2,3.7v47.4c0,1.5,0.8,3,2.2,3.7l38.7,22.4v45c0,1.5,0.8,3,2.2,3.7l41,23.7c0.7,0.4,1.4,0.6,2.2,0.6
		c0.7,0,1.5-0.2,2.2-0.6l38.9-22.4l38.9,22.4c0.7,0.4,1.4,0.6,2.2,0.6c0.7,0,1.5-0.2,2.2-0.6l38.9-22.4l38.9,22.4
		c0.7,0.4,1.4,0.6,2.2,0.6c0.7,0,1.5-0.2,2.2-0.6l41-23.7c1.3-0.8,2.2-2.2,2.2-3.7v-47.4C788.9,221.1,788.1,219.6,786.7,218.9z
		 M706.6,83l36.7-21.2L780,83v42.4l-36.7,21.2l-36.7-21.2V83z M624.6,83L624.6,83l36.7-21.2L698,83v42.4l-36.7,21.2l-36.7-21.2V83z
		 M501.7,196.5v-42.4l36.6-21.1l36.6,21.1v42.4l-36.6,21.1L501.7,196.5z M579.2,288.7l-36.7-21.2v-42.3l36.8-21.2l36.6,21.1v42.4h0
		L579.2,288.7z M583.7,196.5V154l36.6-21.1l36.7,21.2v42.4l-36.7,21.2L583.7,196.5z M698,267.5l-36.7,21.2l-36.7-21.2v-42.4
		l36.7-21.2l36.7,21.2V267.5z M702.3,217.7l-36.7-21.2v-42.4l36.7-21.2l36.7,21.2v42.4L702.3,217.7z M780,267.5l-36.7,21.2
		l-36.7-21.2v-42.4l36.7-21.2l36.7,21.2V267.5z"/>
</g>
<line class="st4" x1="702.3" y1="71.2" x2="703" y2="128.3"/>
<polygon class="st5" points="374.6,126.5 333.1,150.4 291.5,126.5 291.5,78.5 333.1,54.5 374.6,78.5 "/>
<polygon class="st5" points="620,125.3 578.5,149.2 536.9,125.3 536.9,77.3 578.5,53.3 620,77.3 "/>
<polygon class="st5" points="827.8,199.4 786.3,223.3 744.7,199.4 744.7,151.4 786.3,127.4 827.8,151.4 "/>
</svg>
